<svg xmlns="http://www.w3.org/2000/svg" xmlns:xlink="http://www.w3.org/1999/xlink" viewBox="0 0 1027.45 304.79"><defs><style>.cls-1,.cls-9{fill:none;}.cls-1{clip-rule:evenodd;}.cls-2{isolation:isolate;}.cls-3{fill:#0094d9;}.cls-4{fill:#5c5c5c;}.cls-10,.cls-5{fill:#4a4a4a;}.cls-5,.cls-6,.cls-9{fill-rule:evenodd;}.cls-6{fill:#3096d6;}.cls-7{clip-path:url(#clip-path);}.cls-8{fill:#fff;opacity:0.13;mix-blend-mode:lighten;}</style><clipPath id="clip-path"><path class="cls-1" d="M71.78,86.93C136.2,17.34,220.18-9.81,259.2,26.33c12.2,11.3,18.57,27.44,19.6,46.42v.52L279,74c3.83,21.38-2.15,48.61-16.65,76.25l-.57,1h-8.57l3.27-7.37c6.57-16.19,10.35-31.92,11.12-46.26l-.53-9.92-2.17-6.57a38.42,38.42,0,0,0-8.1-10.74C230.26,45.77,173,64.29,129.1,111.7a198.36,198.36,0,0,0-27.17,37l-1.36,2.61H75.09l1.11-2.52A226.92,226.92,0,0,1,114,94.22c32.29-34.89,70.72-56.47,102.63-60.68l9.91-.22-9.18-1.56c-38.54-3.88-91.58,21.43-134.77,68.09A259.68,259.68,0,0,0,46.94,148.3l-1.55,3H26.6l5.3-10.14A290.55,290.55,0,0,1,71.78,86.93Zm70.06,34.62c36.46-39.39,84-54.74,106.07-34.29,13.81,12.77,14.43,36.53,4,62.17l-.81,1.84H235.5l.09-.19c11.86-24.45,12.51-47.91-.51-60-18.94-17.54-59.69-4.36-91,29.42a141.29,141.29,0,0,0-19.34,26.29l-2.32,4.44h-2.6l4.15-6.85A168,168,0,0,1,141.84,121.55Zm17.91,1.77c22.42-24.21,51.61-33.65,65.19-21.08,9.56,8.85,8.83,26.24-.23,44.2l-1,1.5-1.36,3.33H172.68l1.35-2.78a63.33,63.33,0,0,1,8.55-11.65c12.12-13.07,27.44-19.18,36.69-15.29l1.1.68-.48-1.08a17.76,17.76,0,0,0-3.17-3.9c-12.47-11.56-39.35-2.87-60,19.39a103.1,103.1,0,0,0-7.15,8.66l-3.83,6h-4.24l1.3-3.16A97.43,97.43,0,0,1,159.75,123.32Z"/></clipPath></defs><title>CertifixLiveScan Officialexpanded</title><g class="cls-2"><g id="Layer_1" data-name="Layer 1"><path class="cls-3" d="M389.5,140.57q-13.9,5.24-31.57,5.23-57.89,0-57.88-55.6,0-52.6,57.88-52.61,17.65,0,31.57,5.23V60.73a75.39,75.39,0,0,0-30.07-6q-38.71,0-38.71,35.44,0,38.43,38.71,38.43a75.39,75.39,0,0,0,30.07-6Z"/><path class="cls-3" d="M491.16,38.34v17H437.34V82.22h51.27V99.9H437.12v28h55.1v17.16H417.57V38.34Z"/><path class="cls-3" d="M519.92,144.9V38.34h48.86q32.91,0,32.92,28.58,0,19.33-25.63,32l34,46.12H585l-32.7-46.49v-9q28.58-4.84,28.57-22,0-11.79-13.38-11.79H540.21V144.9Z"/><path class="cls-3" d="M699.08,38.34V55.5H668.26v89.55H648.34V55.5H617.52V38.34Z"/><path class="cls-3" d="M739.56,38.34V145.05H719.64V38.34Z"/><path class="cls-3" d="M842,38.34v17H791.16V82.22h48.26V99.9H790.93v45.15H771.39V38.34Z"/><path class="cls-3" d="M888.09,38.34V145.05H868.17V38.34Z"/><path class="cls-3" d="M952.85,91.69,910.52,38.34h25.19l29.69,39,29.69-38.95h25.18L978,91.69l42.24,53.36H995.09l-29.69-39-29.69,39H910.52Z"/><path class="cls-4" d="M251.24,210v46.51h21v8.92H241.45V210Z"/><path class="cls-4" d="M350.23,210v55.43h-9.78V210Z"/><path class="cls-4" d="M470.61,210l-23.16,55.43H436.93L414.77,210H426.4l16.36,42.44L459.09,210Z"/><path class="cls-4" d="M571.3,210v8.84H544.86v14h25.19V242h-25.3v14.53h27.07v8.92H535.15V210Z"/><path class="cls-4" d="M638.94,263.11v-9.3a49,49,0,0,0,17.95,3.1q12.15,0,12.15-8.53,0-6.19-7.46-6.2h-8.27q-16.21,0-16.21-15.5,0-17.06,23.08-17.06a51.8,51.8,0,0,1,16.8,2.71v9.31a45.69,45.69,0,0,0-16.8-3.1q-13.3,0-13.3,8.14,0,6.19,6.43,6.2h8.27q17.25,0,17.25,15.5,0,17.44-21.94,17.45A55.34,55.34,0,0,1,638.94,263.11Z"/><path class="cls-4" d="M788.24,263.11a41.76,41.76,0,0,1-15.51,2.72q-28.44,0-28.44-28.88,0-27.33,28.44-27.33a42,42,0,0,1,15.51,2.71v9.31a35.31,35.31,0,0,0-14.78-3.1q-19,0-19,18.41,0,20,19,20a35.31,35.31,0,0,0,14.78-3.1Z"/><path class="cls-4" d="M861.9,265.44h-10L874.27,210h10.52l22.9,55.43H897.17l-6-15.12H873.6l3.36-8.91H887.6l-8.31-20.82Z"/><path class="cls-4" d="M973.15,265.44V210h9.79l27.88,40.39V210h9.42v55.43h-9.79L982.57,224.2v41.24Z"/><path class="cls-5" d="M25.74,278.46c-39-36.13-18.4-121.94,46-191.53S220.18-9.81,259.2,26.33s18.4,121.94-46,191.53S64.77,314.6,25.74,278.46ZM209,216.89C266.6,154.69,285,78,250.15,45.67s-110-8-167.57,54.18-76,138.91-41.15,171.22S151.4,279.1,209,216.89Z"/><path class="cls-5" d="M77.07,247.86C45.75,218.87,62.3,150,114,94.22s119-77.59,150.34-48.6,14.77,97.81-36.92,153.63S108.37,276.84,77.07,247.86ZM225.49,201c43.9-47.44,58-105.92,31.35-130.54S173,64.29,129.1,111.7s-58,105.92-31.37,130.55S181.57,248.37,225.49,201Z"/><path class="cls-6" d="M115.8,229.94c-22.09-20.45-10.42-69,26-108.39s84-54.74,106.07-34.29,10.42,69-26,108.38S137.88,250.39,115.8,229.94Zm97-45.87C244,150.3,254,108.65,235.08,91.12s-59.69-4.36-91,29.42S102.84,196,121.78,213.47,181.47,217.84,212.75,184.07Z"/><path class="cls-6" d="M159.75,123.32c22.42-24.21,51.61-33.65,65.19-21.08,12.74,11.79,7.22,38.77-12,62.06,11.6-18.67,13.72-37.87,3.8-47.05-12.47-11.56-39.35-2.87-60,19.39-10.43,11.27-17.28,23.86-19.87,35.06C136.92,157.44,145.06,139.17,159.75,123.32Z"/><path class="cls-6" d="M222.85,123.84c8.38,7.75,4,26.18-9.89,41.14s-31.88,20.77-40.26,13-3.95-26.21,9.88-41.16S214.46,116.07,222.85,123.84Z"/><g class="cls-7"><rect class="cls-8" x="15.05" y="10.33" width="276.8" height="142.07"/></g><path class="cls-9" d="M71.78,86.93C136.2,17.34,220.18-9.81,259.2,26.33c12.2,11.3,18.57,27.44,19.6,46.42v.52L279,74c3.83,21.38-2.15,48.61-16.65,76.25l-.57,1h-8.57l3.27-7.37c6.57-16.19,10.35-31.92,11.12-46.26l-.53-9.92-2.17-6.57a38.42,38.42,0,0,0-8.1-10.74C230.26,45.77,173,64.29,129.1,111.7a198.36,198.36,0,0,0-27.17,37l-1.36,2.61H75.09l1.11-2.52A226.92,226.92,0,0,1,114,94.22c32.29-34.89,70.72-56.47,102.63-60.68l9.91-.22-9.18-1.56c-38.54-3.88-91.58,21.43-134.77,68.09A259.68,259.68,0,0,0,46.94,148.3l-1.55,3H26.6l5.3-10.14A290.55,290.55,0,0,1,71.78,86.93Zm70.06,34.62c36.46-39.39,84-54.74,106.07-34.29,13.81,12.77,14.43,36.53,4,62.17l-.81,1.84H235.5l.09-.19c11.86-24.45,12.51-47.91-.51-60-18.94-17.54-59.69-4.36-91,29.42a141.29,141.29,0,0,0-19.34,26.29l-2.32,4.44h-2.6l4.15-6.85A168,168,0,0,1,141.84,121.55Zm17.91,1.77c22.42-24.21,51.61-33.65,65.19-21.08,9.56,8.85,8.83,26.24-.23,44.2l-1,1.5-1.36,3.33H172.68l1.35-2.78a63.33,63.33,0,0,1,8.55-11.65c12.12-13.07,27.44-19.18,36.69-15.29l1.1.68-.48-1.08a17.76,17.76,0,0,0-3.17-3.9c-12.47-11.56-39.35-2.87-60,19.39a103.1,103.1,0,0,0-7.15,8.66l-3.83,6h-4.24l1.3-3.16A97.43,97.43,0,0,1,159.75,123.32Z"/><polygon class="cls-5" points="1020.88 163.22 5.99 163.78 6.03 166.66 1020.92 166.1 1020.88 163.22"/><rect class="cls-10" x="192.11" y="15.29" width="2.49" height="277.92"/></g></g></svg>